<?xml version="1.0" encoding="utf-8"?>
<svg viewBox="0 0 16 16" xmlns="http://www.w3.org/2000/svg" xmlns:bx="https://boxy-svg.com">
  <defs>
    <bx:grid x="0" y="0" width="1" height="1"/>
  </defs>
  <line style="stroke: rgb(0, 0, 0); stroke-linecap: round; stroke-linejoin: round; fill: none; stroke-width: 1.5px;" x1="24.6" y1="2" x2="22.8" y2="13"/>
  <line style="stroke: rgb(0, 0, 0); stroke-linecap: round; stroke-linejoin: round; fill: none; stroke-width: 1.5px;" x1="29.2" y1="2" x2="27.4" y2="13"/>
  <line style="stroke: rgb(0, 0, 0); stroke-linecap: round; stroke-linejoin: round; fill: none; stroke-width: 1.5px;" x1="32" y1="5" x2="20.9" y2="5"/>
  <line style="stroke: rgb(0, 0, 0); stroke-linecap: round; stroke-linejoin: round; fill: none; stroke-width: 1.5px;" x1="31.1" y1="10" x2="20" y2="10"/>
  <rect style="fill: rgb(14, 190, 255);" width="16" height="16" rx="4" ry="4"/>
  <path style="stroke: rgb(0, 0, 0); stroke-width: 1.5px; stroke-linecap: round; stroke-linejoin: round; fill: none;" d="M 46 2 C 46 2 44 1.8 44 4 C 44 5 44 5 44 6 C 44 7 42 7.5 42 7.5 C 42 7.5 44 8 44 9 C 44 10 44 10 44 11 C 44 13 46 13 46 13"/>
  <path style="stroke: rgb(0, 0, 0); stroke-width: 1.5px; stroke-linecap: round; stroke-linejoin: round; fill: none; transform-origin: 54px 7.5px;" d="M 52 2 C 52 2 54 1.8 54 4 C 54 5 54 5 54 6 C 54 7 56 7.5 56 7.5 C 56 7.5 54 8 54 9 C 54 10 54 10 54 11 C 54 13 52 13 52 13"/>
  <ellipse style="" cx="36" cy="5" rx="1" ry="1"/>
  <ellipse style="" cx="36" cy="10" rx="1" ry="1"/>
  <line style="fill: none; stroke: rgb(0, 0, 0); stroke-linecap: round; stroke-linejoin: round; stroke-width: 1.5px;" x1="8" y1="13" x2="8" y2="3"/>
  <line style="fill: none; stroke: rgb(0, 0, 0); stroke-linecap: round; stroke-linejoin: round; stroke-width: 1.5px;" x1="3" y1="8" x2="13" y2="8"/>
  <line style="fill: none; stroke: rgb(0, 0, 0); stroke-linecap: round; stroke-linejoin: round; stroke-width: 1.5px; transform-origin: 8px 8px;" x1="11.5" y1="11.5" x2="4.5" y2="4.5"/>
  <line style="fill: none; stroke: rgb(0, 0, 0); stroke-linecap: round; stroke-linejoin: round; stroke-width: 1.5px; transform-origin: 8px 8px;" x1="4.5" y1="11.5" x2="11.5" y2="4.5"/>
</svg>