<?xml version="1.0" encoding="utf-8"?>
<svg viewBox="0 0 16 16" xmlns="http://www.w3.org/2000/svg" xmlns:bx="https://boxy-svg.com">
  <defs>
    <bx:grid x="0" y="0" width="1" height="1"/>
  </defs>
  <line style="stroke: rgb(0, 0, 0); stroke-linecap: round; stroke-linejoin: round; fill: none; stroke-width: 1.5px;" x1="24.6" y1="2" x2="22.8" y2="13"/>
  <line style="stroke: rgb(0, 0, 0); stroke-linecap: round; stroke-linejoin: round; fill: none; stroke-width: 1.5px;" x1="29.2" y1="2" x2="27.4" y2="13"/>
  <line style="stroke: rgb(0, 0, 0); stroke-linecap: round; stroke-linejoin: round; fill: none; stroke-width: 1.5px;" x1="32" y1="5" x2="20.9" y2="5"/>
  <line style="stroke: rgb(0, 0, 0); stroke-linecap: round; stroke-linejoin: round; fill: none; stroke-width: 1.5px;" x1="31.1" y1="10" x2="20" y2="10"/>
  <rect style="fill: rgb(252, 208, 0);" width="16" height="16" rx="4" ry="4"/>
  <path style="stroke: rgb(0, 0, 0); stroke-width: 1.5px; stroke-linecap: round; stroke-linejoin: round; fill: none;" d="M 6 4.003 C 6 4.003 4 3.858 4 5.457 C 4 6.183 4 6.183 4 6.909 C 4 7.636 3 8 3 8 C 3 8 4 8.362 4 9.089 C 4 9.816 4 9.816 4 10.542 C 4 11.995 6 11.995 6 11.995"/>
  <path style="stroke: rgb(0, 0, 0); stroke-width: 1.5px; stroke-linecap: round; stroke-linejoin: round; fill: none; transform-origin: 12px 8px;" d="M 10 4.003 C 10 4.003 12 3.858 12 5.457 C 12 6.183 12 6.183 12 6.909 C 12 7.636 13 8 13 8 C 13 8 12 8.362 12 9.089 C 12 9.816 12 9.816 12 10.542 C 12 11.995 10 11.995 10 11.995"/>
  <ellipse style="" cx="36" cy="5" rx="1" ry="1"/>
  <ellipse style="" cx="36" cy="10" rx="1" ry="1"/>
</svg>