<?xml version="1.0" encoding="utf-8"?>
<svg viewBox="0 0 720 240" xmlns="http://www.w3.org/2000/svg">
  <defs>
    <linearGradient id="color-0" gradientUnits="userSpaceOnUse" gradientTransform="matrix(0.137245, 0, 0, 0.137267, -191.839539, -857.284424)">
      <title>light</title>
      <stop style="stop-color: rgb(206, 186, 255);"/>
    </linearGradient>
    <linearGradient id="color-1" gradientUnits="userSpaceOnUse" gradientTransform="matrix(0.37049, 0, 0, 0.37049, -15.699036, -751.30188)">
      <title>dark</title>
      <stop style="stop-color: rgb(142, 93, 206);"/>
    </linearGradient>
    <linearGradient id="color-2" gradientUnits="userSpaceOnUse" gradientTransform="matrix(0.8, 0, 0, 0.6, 0, 300.000061)">
      <title>background</title>
      <stop style="stop-color: rgb(130, 74, 185);"/>
    </linearGradient>
  </defs>
  <rect width="720" height="240" style="fill: url('#color-2');"/>
  <path style="fill: url('#color-0');" d="M 160 119.9 L 100 119.9 L 120 79.9 L 160 119.9 Z"/>
  <path style="fill: url('#color-0');" d="M 220 119.9 L 160 119.9 L 200 79.9 L 220 119.9 Z"/>
  <path style="fill: url('#color-1');" d="M 140 119.9 L 160 99.9 L 180 119.9 L 140 119.9 Z"/>
  <path style="fill: url('#color-1');" d="M 160 119.9 L 100 119.9 L 120 159.9 L 160 119.9 Z"/>
  <path style="fill: url('#color-1');" d="M 220 119.9 L 160 119.9 L 200 159.9 L 220 119.9 Z"/>
  <path style="fill: url('#color-0');" d="M 140 119.9 L 160 139.9 L 180 119.9 L 140 119.9 Z"/>
  <path d="M 259.93 140.34 L 259.93 99.61 L 270.47 99.61 L 270.63 105.07 Q 272.71 102.22 276.02 100.53 Q 279.33 98.84 282.72 98.84 Q 287.03 98.84 290.03 100.68 Q 293.04 102.53 294.73 106.54 Q 296.12 104.23 298.35 102.49 Q 300.58 100.76 303.24 99.8 Q 305.89 98.84 308.44 98.84 Q 322.6 98.84 322.6 115.7 L 322.6 140.34 L 311.67 140.34 L 311.67 116.47 Q 311.67 108.31 304.97 108.31 Q 301.35 108.31 299.04 110.54 Q 296.73 112.77 296.73 116.08 L 296.73 140.34 L 285.8 140.34 L 285.8 116.32 Q 285.8 112.47 284.07 110.39 Q 282.33 108.31 279.1 108.31 Q 275.63 108.31 273.29 110.5 Q 270.94 112.7 270.94 116.08 L 270.94 140.34 Z M 333.97 140.34 L 333.97 99.61 L 344.52 99.61 L 344.67 106.31 Q 346.67 102.99 349.95 100.88 Q 353.22 98.76 356.84 98.76 Q 358.22 98.76 359.42 98.99 Q 360.61 99.22 361.46 99.53 L 358.53 111.46 Q 357.68 111.08 356.34 110.73 Q 354.99 110.39 353.6 110.39 Q 349.98 110.39 347.48 112.89 Q 344.98 115.39 344.98 119.32 L 344.98 140.34 Z M 374.44 91.21 Q 371.28 91.21 369.55 89.67 Q 367.82 88.13 367.82 85.28 Q 367.82 82.67 369.59 81.01 Q 371.36 79.36 374.44 79.36 Q 377.6 79.36 379.37 80.93 Q 381.14 82.51 381.14 85.28 Q 381.14 87.98 379.37 89.6 Q 377.6 91.21 374.44 91.21 Z M 363.81 156.2 L 359.65 147.81 Q 364.58 147.81 366.7 145.61 Q 368.82 143.42 368.82 138.18 L 368.82 99.61 L 379.75 99.61 L 379.75 140.8 Q 379.75 148.35 375.52 152.27 Q 371.28 156.2 363.81 156.2 Z M 405.52 141.11 Q 399.9 141.11 395.47 139.26 Q 391.05 137.41 388.28 134.03 L 395.13 128.17 Q 397.44 130.71 400.36 131.83 Q 403.29 132.95 406.29 132.95 Q 408.53 132.95 409.91 131.91 Q 411.3 130.87 411.3 129.1 Q 411.3 127.4 409.91 126.48 Q 408.53 125.48 403.44 124.17 Q 395.67 122.17 392.43 118.7 Q 389.58 115.7 389.58 111.08 Q 389.58 107.38 391.74 104.61 Q 393.9 101.84 397.48 100.3 Q 401.06 98.76 405.29 98.76 Q 410.07 98.76 414.3 100.45 Q 418.54 102.15 421.46 105.07 L 415.61 111.62 Q 413.45 109.62 410.68 108.23 Q 407.91 106.84 405.68 106.84 Q 400.21 106.84 400.21 110.54 Q 400.21 112.31 401.83 113.47 Q 402.6 113.93 404.29 114.54 Q 405.99 115.16 408.83 115.93 Q 416.07 117.86 419.15 121.01 Q 420.46 122.4 421.08 124.21 Q 421.69 126.02 421.69 128.1 Q 421.69 131.87 419.58 134.83 Q 417.46 137.8 413.8 139.45 Q 410.14 141.11 405.52 141.11 Z" style="fill: url('#color-0');"/>
  <rect width="720" height="240" style="fill: url('#color-2');" y="300"/>
  <path style="fill: rgb(255, 255, 255);" d="M 154 419.9 L 94 419.9 L 114 379.9 L 154 419.9 Z"/>
  <path style="fill: rgb(255, 255, 255);" d="M 265.93 419.9 L 205.93 419.9 L 245.93 379.9 L 265.93 419.9 Z"/>
  <path style="fill: rgb(255, 255, 255);" d="M 160 419.9 L 180 399.9 L 200 419.9 L 160 419.9 Z"/>
  <path style="fill: rgb(255, 255, 255);" d="M 154 425.9 L 94 425.9 L 114 465.9 L 154 425.9 Z"/>
  <path style="fill: rgb(255, 255, 255);" d="M 265.93 425.9 L 205.93 425.9 L 245.93 465.9 L 265.93 425.9 Z"/>
  <path style="fill: rgb(255, 255, 255);" d="M 160 425.9 L 180 445.9 L 200 425.9 L 160 425.9 Z"/>
  <path d="M 300 440.88 L 300 400.15 L 310.54 400.15 L 310.7 405.61 C 312.09 403.71 313.88 402.2 316.09 401.07 C 318.3 399.94 320.53 399.38 322.79 399.38 C 325.66 399.38 328.1 399.99 330.1 401.22 C 332.11 402.45 333.67 404.41 334.8 407.08 C 335.73 405.54 336.93 404.19 338.42 403.03 C 339.91 401.88 341.54 400.98 343.31 400.34 C 345.08 399.7 346.81 399.38 348.51 399.38 C 357.95 399.38 362.67 405 362.67 416.24 L 362.67 440.88 L 351.74 440.88 L 351.74 417.01 C 351.74 411.57 349.51 408.85 345.04 408.85 C 342.63 408.85 340.65 409.59 339.11 411.08 C 337.57 412.57 336.8 414.41 336.8 416.62 L 336.8 440.88 L 325.87 440.88 L 325.87 416.86 C 325.87 414.29 325.29 412.32 324.14 410.93 C 322.98 409.54 321.32 408.85 319.17 408.85 C 316.86 408.85 314.92 409.58 313.36 411.04 C 311.79 412.51 311.01 414.37 311.01 416.62 L 311.01 440.88 L 300 440.88 Z M 374.04 440.88 L 374.04 400.15 L 384.59 400.15 L 384.74 406.85 C 386.07 404.64 387.83 402.83 390.02 401.42 C 392.2 400.01 394.5 399.3 396.91 399.3 C 397.83 399.3 398.69 399.38 399.49 399.53 C 400.28 399.68 400.96 399.86 401.53 400.07 L 398.6 412 C 398.03 411.75 397.3 411.5 396.41 411.27 C 395.51 411.04 394.6 410.93 393.67 410.93 C 391.26 410.93 389.22 411.76 387.55 413.43 C 385.88 415.1 385.05 417.24 385.05 419.86 L 385.05 440.88 L 374.04 440.88 Z M 414.51 391.75 C 412.4 391.75 410.77 391.24 409.62 390.21 C 408.47 389.18 407.89 387.72 407.89 385.82 C 407.89 384.08 408.48 382.66 409.66 381.55 C 410.84 380.45 412.46 379.9 414.51 379.9 C 416.62 379.9 418.26 380.42 419.44 381.47 C 420.62 382.52 421.21 383.97 421.21 385.82 C 421.21 387.62 420.62 389.06 419.44 390.14 C 418.26 391.21 416.62 391.75 414.51 391.75 Z M 403.88 456.74 L 399.72 448.35 C 403.01 448.35 405.36 447.62 406.77 446.15 C 408.18 444.69 408.89 442.21 408.89 438.72 L 408.89 400.15 L 419.82 400.15 L 419.82 441.34 C 419.82 446.37 418.41 450.2 415.59 452.81 C 412.76 455.43 408.86 456.74 403.88 456.74 Z M 445.59 441.65 C 441.84 441.65 438.49 441.03 435.54 439.8 C 432.59 438.57 430.2 436.82 428.35 434.57 L 435.2 428.71 C 436.74 430.4 438.48 431.62 440.43 432.37 C 442.38 433.12 444.36 433.49 446.36 433.49 C 447.85 433.49 449.06 433.14 449.98 432.45 C 450.91 431.76 451.37 430.82 451.37 429.64 C 451.37 428.51 450.91 427.63 449.98 427.02 C 449.06 426.35 446.9 425.58 443.51 424.71 C 438.33 423.38 434.66 421.55 432.5 419.24 C 430.6 417.24 429.65 414.7 429.65 411.62 C 429.65 409.15 430.37 407 431.81 405.15 C 433.25 403.3 435.16 401.87 437.55 400.84 C 439.94 399.81 442.54 399.3 445.36 399.3 C 448.55 399.3 451.55 399.86 454.37 400.99 C 457.2 402.12 459.58 403.66 461.53 405.61 L 455.68 412.16 C 454.24 410.83 452.6 409.7 450.75 408.77 C 448.9 407.84 447.24 407.38 445.75 407.38 C 442.1 407.38 440.28 408.61 440.28 411.08 C 440.28 412.26 440.82 413.24 441.9 414.01 C 442.41 414.32 443.23 414.67 444.36 415.08 C 445.49 415.49 447.01 415.96 448.9 416.47 C 453.73 417.76 457.17 419.45 459.22 421.55 C 460.09 422.48 460.74 423.54 461.15 424.75 C 461.56 425.96 461.76 427.25 461.76 428.64 C 461.76 431.15 461.06 433.4 459.65 435.37 C 458.24 437.35 456.31 438.89 453.87 439.99 C 451.43 441.1 448.67 441.65 445.59 441.65 Z" style="fill: rgb(255, 255, 255);"/>
</svg>