<?xml version="1.0" encoding="utf-8"?>
<svg viewBox="0 0 400 420" xmlns="http://www.w3.org/2000/svg" xmlns:bx="https://boxy-svg.com">
  <defs>
    <bx:grid x="0" y="0" width="20" height="20"/>
  </defs>
  <path style="stroke: rgb(0, 0, 0); fill: none; stroke-width: 3px;" d="M 41.2 159.61 L 40 40 L 80 80 L 120 40 L 120 160"/>
  <path style="stroke: rgb(0, 0, 0); fill: none; stroke-width: 3px;" d="M 140 160 L 140 40 L 200 80 L 140 120 L 200 160"/>
  <rect style="fill: rgb(216, 216, 216);" x="220" y="40" width="140" height="120" rx="20" ry="20"/>
  <path style="fill: rgb(216, 216, 216); stroke: rgb(0, 0, 0);" d="M 281.01 61.37 L 280 140 L 240 140"/>
  <path style="fill: rgb(216, 216, 216); stroke: rgb(0, 0, 0);" d="M 340 60 L 300 60 L 300 100 L 340 100 L 340 140 L 300 140"/>
  <path style="fill: rgb(216, 216, 216); stroke: rgb(0, 0, 0);" d="M 118.75 339.77 L 200 400 L 280 340 L 300 220 L 200 280 L 100 220 L 118.75 339.77 Z"/>
  <path style="fill: rgb(216, 216, 216); stroke: rgb(0, 0, 0);" d="M 202 180.15 L 300 220 L 200 280 L 100 220 L 202 180.15 Z"/>
  <path style="fill: rgb(216, 216, 216); stroke: rgb(0, 0, 0);" d="M 180 290.27 L 180 360 L 140 328.84"/>
  <path style="fill: rgb(216, 216, 216); stroke: rgb(0, 0, 0);" d="M 220 320 L 220.42 289.12 L 270.06 260 L 220.42 289.12 L 220 320 Z"/>
  <path style="fill: rgb(216, 216, 216); stroke: rgb(0, 0, 0);" d="M 219.84 319.57 L 264.98 295.13 L 260 329.28 L 220 360"/>
</svg>