<?xml version="1.0" encoding="utf-8"?>
<svg viewBox="0 0 720 240" xmlns="http://www.w3.org/2000/svg">
  <path style="fill: var(--ink);" d="M 140.31 115.9 L 80.31 115.9 L 100.31 75.9 L 140.31 115.9 Z"/>
  <path style="fill: var(--ink);" d="M 204.31 115.9 L 144.31 115.9 L 184.31 75.9 L 204.31 115.9 Z"/>
  <path style="fill: var(--accent);" d="M 140.31 119.9 L 80.31 119.9 L 100.31 159.9 L 140.31 119.9 Z"/>
  <path style="fill: var(--accent);" d="M 204.31 119.9 L 144.31 119.9 L 184.31 159.9 L 204.31 119.9 Z"/>
  <path d="M 240.24 140.34 L 240.24 99.61 L 250.78 99.61 L 250.94 105.07 C 252.33 103.17 254.12 101.66 256.33 100.53 C 258.54 99.4 260.77 98.84 263.03 98.84 C 265.9 98.84 268.34 99.45 270.34 100.68 C 272.35 101.91 273.91 103.87 275.04 106.54 C 275.97 105 277.17 103.65 278.66 102.49 C 280.15 101.34 281.78 100.44 283.55 99.8 C 285.32 99.16 287.05 98.84 288.75 98.84 C 298.19 98.84 302.91 104.46 302.91 115.7 L 302.91 140.34 L 291.98 140.34 L 291.98 116.47 C 291.98 111.03 289.75 108.31 285.28 108.31 C 282.87 108.31 280.89 109.05 279.35 110.54 C 277.81 112.03 277.04 113.87 277.04 116.08 L 277.04 140.34 L 266.11 140.34 L 266.11 116.32 C 266.11 113.75 265.53 111.78 264.38 110.39 C 263.22 109 261.56 108.31 259.41 108.31 C 257.1 108.31 255.16 109.04 253.6 110.5 C 252.03 111.97 251.25 113.83 251.25 116.08 L 251.25 140.34 L 240.24 140.34 Z M 314.28 140.34 L 314.28 99.61 L 324.83 99.61 L 324.98 106.31 C 326.31 104.1 328.07 102.29 330.26 100.88 C 332.44 99.47 334.74 98.76 337.15 98.76 C 338.07 98.76 338.93 98.84 339.73 98.99 C 340.52 99.14 341.2 99.32 341.77 99.53 L 338.84 111.46 C 338.27 111.21 337.54 110.96 336.65 110.73 C 335.75 110.5 334.84 110.39 333.91 110.39 C 331.5 110.39 329.46 111.22 327.79 112.89 C 326.12 114.56 325.29 116.7 325.29 119.32 L 325.29 140.34 L 314.28 140.34 Z M 354.75 91.21 C 352.64 91.21 351.01 90.7 349.86 89.67 C 348.71 88.64 348.13 87.18 348.13 85.28 C 348.13 83.54 348.72 82.12 349.9 81.01 C 351.08 79.91 352.7 79.36 354.75 79.36 C 356.86 79.36 358.5 79.88 359.68 80.93 C 360.86 81.98 361.45 83.43 361.45 85.28 C 361.45 87.08 360.86 88.52 359.68 89.6 C 358.5 90.67 356.86 91.21 354.75 91.21 Z M 344.12 156.2 L 339.96 147.81 C 343.25 147.81 345.6 147.08 347.01 145.61 C 348.42 144.15 349.13 141.67 349.13 138.18 L 349.13 99.61 L 360.06 99.61 L 360.06 140.8 C 360.06 145.83 358.65 149.66 355.83 152.27 C 353 154.89 349.1 156.2 344.12 156.2 Z M 385.83 141.11 C 382.08 141.11 378.73 140.49 375.78 139.26 C 372.83 138.03 370.44 136.28 368.59 134.03 L 375.44 128.17 C 376.98 129.86 378.72 131.08 380.67 131.83 C 382.62 132.58 384.6 132.95 386.6 132.95 C 388.09 132.95 389.3 132.6 390.22 131.91 C 391.15 131.22 391.61 130.28 391.61 129.1 C 391.61 127.97 391.15 127.09 390.22 126.48 C 389.3 125.81 387.14 125.04 383.75 124.17 C 378.57 122.84 374.9 121.01 372.74 118.7 C 370.84 116.7 369.89 114.16 369.89 111.08 C 369.89 108.61 370.61 106.46 372.05 104.61 C 373.49 102.76 375.4 101.33 377.79 100.3 C 380.18 99.27 382.78 98.76 385.6 98.76 C 388.79 98.76 391.79 99.32 394.61 100.45 C 397.44 101.58 399.82 103.12 401.77 105.07 L 395.92 111.62 C 394.48 110.29 392.84 109.16 390.99 108.23 C 389.14 107.3 387.48 106.84 385.99 106.84 C 382.34 106.84 380.52 108.07 380.52 110.54 C 380.52 111.72 381.06 112.7 382.14 113.47 C 382.65 113.78 383.47 114.13 384.6 114.54 C 385.73 114.95 387.25 115.42 389.14 115.93 C 393.97 117.22 397.41 118.91 399.46 121.01 C 400.33 121.94 400.98 123 401.39 124.21 C 401.8 125.42 402 126.71 402 128.1 C 402 130.61 401.3 132.86 399.89 134.83 C 398.48 136.81 396.55 138.35 394.11 139.45 C 391.67 140.56 388.91 141.11 385.83 141.11 Z" style="fill: var(--ink);"/>
</svg>