<?xml version="1.0" encoding="utf-8"?>
<svg viewBox="0 0 1000 600" xmlns="http://www.w3.org/2000/svg" xmlns:bx="https://boxy-svg.com">
  <defs>
    <bx:grid x="0" y="0" width="20" height="20"/>
  </defs>
  <rect width="1000" height="600" style="stroke: rgb(0, 0, 0); stroke-width: 0px; fill: rgb(175, 143, 255);"/>
  <g transform="matrix(1, 0, 0, 1, 0, 13.652505)">
    <path style="fill: rgb(255, 255, 255);" d="M 325.987 286.266 L 229 286.266 L 261.329 215.304 L 325.987 286.266 Z"/>
    <path style="fill: rgb(255, 255, 255);" d="M 431.441 286.266 L 334.453 286.266 L 399.112 215.304 L 431.441 286.266 Z"/>
    <path style="fill: rgb(123, 82, 225);" d="M 325.987 294.732 L 229 294.732 L 261.329 359.391 L 325.987 294.732 Z"/>
    <path style="fill: rgb(123, 82, 225);" d="M 431.441 294.732 L 334.453 294.732 L 399.112 359.391 L 431.441 294.732 Z"/>
    <path d="M 480.521 325.772 L 480.521 259.934 L 497.558 259.934 L 497.817 268.76 C 500.064 265.689 502.957 263.249 506.529 261.422 C 510.102 259.595 513.707 258.69 517.36 258.69 C 522 258.69 525.944 259.675 529.177 261.665 C 532.426 263.653 534.947 266.82 536.774 271.136 C 538.278 268.648 540.217 266.465 542.626 264.59 C 545.034 262.73 547.669 261.276 550.53 260.242 C 553.391 259.207 556.187 258.69 558.936 258.69 C 574.195 258.69 581.824 267.775 581.824 285.943 L 581.824 325.772 L 564.157 325.772 L 564.157 287.188 C 564.157 278.395 560.553 273.997 553.326 273.997 C 549.431 273.997 546.23 275.194 543.741 277.603 C 541.251 280.011 540.007 282.986 540.007 286.557 L 540.007 325.772 L 522.338 325.772 L 522.338 286.946 C 522.338 282.791 521.401 279.607 519.542 277.36 C 517.666 275.113 514.985 273.997 511.508 273.997 C 507.774 273.997 504.639 275.177 502.118 277.538 C 499.58 279.913 498.319 282.921 498.319 286.557 L 498.319 325.772 L 480.521 325.772 Z M 600.204 325.772 L 600.204 259.934 L 617.258 259.934 L 617.501 270.764 C 619.65 267.192 622.495 264.267 626.035 261.987 C 629.559 259.708 633.276 258.56 637.173 258.56 C 638.66 258.56 640.049 258.69 641.344 258.932 C 642.621 259.175 643.719 259.465 644.64 259.805 L 639.904 279.089 C 638.982 278.685 637.803 278.281 636.365 277.909 C 634.91 277.538 633.438 277.36 631.936 277.36 C 628.039 277.36 624.742 278.702 622.043 281.402 C 619.343 284.101 618.001 287.56 618.001 291.795 L 618.001 325.772 L 600.204 325.772 Z M 665.622 246.355 C 662.212 246.355 659.576 245.532 657.718 243.867 C 655.858 242.202 654.921 239.842 654.921 236.771 C 654.921 233.958 655.874 231.663 657.782 229.868 C 659.69 228.09 662.308 227.201 665.622 227.201 C 669.033 227.201 671.684 228.041 673.591 229.74 C 675.499 231.436 676.452 233.78 676.452 236.771 C 676.452 239.68 675.499 242.008 673.591 243.754 C 671.684 245.483 669.033 246.355 665.622 246.355 Z M 648.439 351.409 L 641.715 337.849 C 647.032 337.849 650.831 336.667 653.111 334.292 C 655.39 331.932 656.537 327.923 656.537 322.282 L 656.537 259.934 L 674.206 259.934 L 674.206 326.516 C 674.206 334.648 671.926 340.838 667.368 345.057 C 662.793 349.293 656.489 351.409 648.439 351.409 Z M 715.862 327.018 C 709.8 327.018 704.385 326.016 699.617 324.028 C 694.848 322.039 690.984 319.21 687.994 315.573 L 699.068 306.1 C 701.556 308.833 704.369 310.805 707.521 312.018 C 710.673 313.229 713.874 313.827 717.106 313.827 C 719.516 313.827 721.47 313.261 722.959 312.146 C 724.461 311.03 725.205 309.51 725.205 307.604 C 725.205 305.778 724.461 304.355 722.959 303.369 C 721.47 302.285 717.98 301.041 712.499 299.634 C 704.126 297.484 698.195 294.527 694.702 290.792 C 691.631 287.56 690.095 283.454 690.095 278.475 C 690.095 274.483 691.259 271.007 693.587 268.016 C 695.915 265.026 699.002 262.714 702.865 261.049 C 706.728 259.385 710.932 258.56 715.49 258.56 C 720.647 258.56 725.496 259.465 730.054 261.292 C 734.629 263.119 738.476 265.608 741.629 268.76 L 732.172 279.348 C 729.844 277.198 727.193 275.371 724.203 273.869 C 721.212 272.365 718.529 271.621 716.121 271.621 C 710.221 271.621 707.278 273.609 707.278 277.603 C 707.278 279.509 708.151 281.094 709.897 282.339 C 710.722 282.84 712.047 283.405 713.874 284.068 C 715.7 284.731 718.157 285.49 721.212 286.315 C 729.02 288.4 734.581 291.132 737.894 294.527 C 739.301 296.029 740.352 297.744 741.015 299.699 C 741.677 301.656 742 303.74 742 305.987 C 742 310.045 740.869 313.682 738.589 316.867 C 736.31 320.066 733.191 322.556 729.246 324.334 C 725.302 326.128 720.841 327.018 715.862 327.018 Z" style="fill: rgb(255, 255, 255);"/>
  </g>
</svg>