<?xml version="1.0" encoding="utf-8"?>
<svg viewBox="0 0 200 52" xmlns="http://www.w3.org/2000/svg">
    <style>
        :root {
            --ink: #242424;
            --accent: #9469ff;
            --center: #7982ff;
            --alt-accent: #56bbff;
        }

        @media (prefers-color-scheme:dark) {
            :root {
                --ink: #f8f8f8;
                --accent: #a07aff;
                --center: #c985ff;
                --alt-accent: #e982ff;
            }
        }
    </style>
    <path fill="var(--ink)"
        d="M 168.4 0 C 169.5 0 170.5 0.4 171.1 1 C 171.9 1.8 172.3 2.7 172.3 3.8 C 172.3 5 171.9 6 171.1 6.6 C 170.5 7.3 169.4 7.6 168.4 7.6 C 167.3 7.6 166.3 7.3 165.5 6.6 C 164.8 6 164.4 5 164.4 3.8 C 164.4 2.7 164.8 1.8 165.5 1 C 166.3 0.4 167.3 0 168.4 0 Z M 188.2 16.5 C 187.6 16.5 187.1 16.5 186.4 16.5 C 185.8 16.6 185.2 16.8 184.7 17 C 184.2 17.2 183.9 17.5 183.6 18 C 183.2 18.4 183 18.9 183 19.6 C 183 20.3 183.3 20.9 183.7 21.4 C 184.2 21.9 184.8 22.2 185.6 22.5 C 186.3 22.7 187.1 22.9 187.8 23 C 188.7 23.2 189.4 23.3 190 23.5 C 191.5 23.8 192.9 24.1 194.2 24.4 C 195.4 24.8 196.3 25.3 197.3 25.9 C 198.1 26.5 198.8 27.3 199.3 28.2 C 199.8 29.1 200 30.3 200 31.8 C 200 33.2 199.7 34.6 199 35.9 C 198.3 37 197.5 38 196.3 38.6 C 195.4 39.3 194.3 39.7 192.9 40 C 191.5 40.3 190.1 40.5 188.7 40.5 C 187.3 40.5 185.8 40.3 184.4 40 C 183.2 39.7 181.8 39.2 180.7 38.6 C 179.5 37.9 178.5 36.9 177.7 35.8 C 177 34.7 176.5 33.3 176.3 31.7 L 182.5 31.7 C 182.7 32.4 182.9 33 183.4 33.4 C 183.8 33.9 184.3 34.3 185 34.6 C 185.6 34.9 186.3 35.1 186.9 35.2 C 187.6 35.2 188.3 35.3 188.8 35.3 C 189.3 35.3 189.7 35.3 190.4 35.2 C 191 35.2 191.6 35 192.1 34.7 C 192.7 34.5 193.2 34.2 193.5 33.8 C 193.9 33.3 194.1 32.8 194.1 32.2 C 194.1 31.5 194 31.1 193.7 30.8 C 193.4 30.3 193.1 30 192.5 29.7 C 192 29.4 191.4 29.1 190.8 29 C 190.1 28.8 189.4 28.6 188.6 28.5 C 187.4 28.3 186.2 28 184.8 27.7 C 183.5 27.3 182.3 26.9 181.1 26.4 C 179.9 25.9 179 25.1 178.3 24.1 C 177.4 22.9 177.1 21.6 177.1 20.1 C 177.1 18.4 177.4 16.9 178.1 15.9 C 178.7 14.8 179.7 13.8 180.8 13.1 C 181.8 12.4 183 11.9 184.3 11.7 C 185.7 11.4 187 11.2 188.2 11.2 C 191.4 11.2 194 12 195.9 13.5 C 197.8 14.9 198.9 17 199.1 19.6 L 193.4 19.6 C 193.3 18.5 192.7 17.8 191.6 17.2 C 190.7 16.7 189.5 16.5 188.2 16.5 Z" />
    <path fill="var(--ink)"
        d="M 150.6 11.8 C 151.4 11.8 152.1 11.9 152.9 12.2 C 153.6 12.3 154.4 12.5 155 12.8 C 155.7 13.1 156.3 13.6 157 14.1 C 157.9 15 158.5 16 158.8 17.2 C 159.3 18.4 159.5 19.6 159.4 20.8 C 159.4 22.5 159.2 23.9 158.6 25 C 158.1 26.1 157.4 27.2 156.4 28 C 155.6 28.8 154.6 29.2 153.4 29.5 L 159.7 40.3 L 153.2 40.3 L 147.4 30.1 L 142.9 30.1 L 142.9 40.3 L 137.1 40.3 L 137.1 11.8 L 150.6 11.8 Z M 148.4 25.2 C 149.1 25.2 149.9 25.1 150.5 24.9 C 151.2 24.8 151.6 24.6 152.1 24.3 C 152.7 23.9 153.1 23.5 153.3 22.9 C 153.6 22.5 153.8 21.8 153.8 21 C 153.8 20.1 153.7 19.4 153.4 18.9 C 153.2 18.5 152.8 18 152.3 17.8 C 151.8 17.4 151.3 17.2 150.6 17.1 C 150 17 149.3 16.9 148.5 16.9 L 142.9 16.9 L 142.9 25.2 L 148.4 25.2 Z" />
    <path fill="var(--ink)"
        d="M 171.4 11.8 L 171.4 42 C 171.4 45.1 170.9 47.5 169.5 49.1 C 168.1 50.6 165.7 51.4 162.5 51.4 L 159.2 51.4 L 159.2 46 L 161.3 46 C 162.9 46 164 45.6 164.5 44.8 C 165 43.9 165.3 42.9 165.3 41.4 L 165.3 11.8 L 171.4 11.8 Z" />
    <path fill="var(--ink)"
        d="M 107.8 11.8 L 116.3 25.2 L 124.8 11.8 L 131.1 11.8 L 131.1 40.3 L 125.2 40.3 L 125.2 20.5 L 117.6 32.8 L 115 32.8 L 107.2 20.5 L 107.2 40.3 L 101.5 40.3 L 101.5 11.8 L 107.8 11.8 Z" />
    <path fill="var(--center)"
        d="M 29.6 26.2 C 31.7 22.7 34.1 19.6 36.9 16.9 C 39.7 19.5 42.2 22.6 44.2 26.1 C 42.2 29.7 39.7 32.8 36.8 35.5 C 34 32.8 31.7 29.7 29.6 26.2 Z" />
    <path fill="var(--alt-accent)"
        d="M 66.5 4.9 C 74.1 18.1 74.1 34.3 66.5 47.5 C 56.6 47.5 46.9 44 39.3 37.7 C 42.3 34.8 44.9 31.4 46.9 27.8 L 47.9 26.1 L 46.9 24.5 C 44.9 20.9 42.3 17.6 39.4 14.7 C 46.9 8.3 56.6 4.9 66.5 4.9 Z" />
    <path fill="var(--accent)"
        d="M 7.3 47.5 C -0.3 34.3 -0.3 18.1 7.3 5 C 17.4 5 27 8.4 34.5 14.7 C 31.7 17.6 28.9 20.9 26.8 24.6 L 25.9 26.2 L 26.8 27.8 C 29 31.4 31.7 34.8 34.4 37.7 C 26.8 44 17.2 47.5 7.3 47.5 Z" />
</svg>