<svg viewBox="500 0 310 80">
    <style>
        :root {
            --ink: #242424;
            --accent: #9469ff;
            --center: #7982ff;
            --alt-accent: #56bbff;
        }

        @media (prefers-color-scheme:dark) {
            :root {
                --ink: #f8f8f8;
                --accent: #a07aff;
                --center: #c985ff;
                --alt-accent: #e982ff;
            }
        }
    </style>
    <path fill="var(--ink)" d="M757.8 0c1.7 0 3.2.6 4.3 1.6 1.2 1.1 1.8 2.5 1.8 4.3 0 1.8-.6 3.3-1.8 4.3a5.89 5.89 0 0 1-4.3 1.6c-1.7 0-3.2-.5-4.4-1.6-1.1-1-1.7-2.5-1.7-4.3 0-1.8.6-3.2 1.7-4.3 1.2-1 2.7-1.6 4.4-1.6Zm30.6 25.4c-.8 0-1.7 0-2.7.1-.9.1-1.8.4-2.6.8-.8.3-1.3.7-1.9 1.4-.5.7-.8 1.6-.8 2.6 0 1.2.4 2.1 1.2 2.9.7.7 1.6 1.2 2.9 1.6 1.1.3 2.2.6 3.4.8 1.3.3 2.4.5 3.3.7 2.3.5 4.5.9 6.4 1.5 1.9.5 3.5 1.3 4.9 2.2 1.3 1 2.3 2.1 3.1 3.6.8 1.4 1.1 3.2 1.1 5.6a12 12 0 0 1-1.6 6.3c-1 1.7-2.3 3.2-4 4.2-1.6 1-3.3 1.6-5.5 2.1-2.1.4-4.2.7-6.4.7s-4.4-.3-6.5-.7c-2.1-.5-4.2-1.2-5.9-2.2-1.9-1-3.4-2.5-4.6-4.2-1.1-1.8-1.8-3.9-2.2-6.3h9.5c.3 1.1.7 2 1.5 2.6.7.8 1.5 1.4 2.5 1.8 1 .5 2 .8 3 .9 1.1.1 2.1.2 2.9.2.7 0 1.4 0 2.4-.1s1.9-.4 2.7-.8c.9-.3 1.6-.8 2.1-1.4.6-.7.9-1.5.9-2.5s-.2-1.8-.6-2.3c-.5-.7-1-1.2-1.8-1.7-.8-.4-1.7-.8-2.7-1-1-.3-2.1-.6-3.4-.8-1.7-.3-3.6-.8-5.8-1.2-2.1-.6-4-1.2-5.8-2-1.8-.8-3.2-2-4.3-3.6-1.3-1.7-1.8-3.7-1.8-6.1 0-2.7.5-5 1.5-6.6 1-1.7 2.4-3.2 4.1-4.2 1.6-1.1 3.5-1.9 5.6-2.2 2.1-.4 4.1-.7 6-.7 4.8 0 8.8 1.1 11.8 3.4 3 2.2 4.7 5.5 5.1 9.6h-9c-.2-1.8-1.1-3-2.7-3.8-1.4-.8-3.2-1.1-5.3-1.2Z" />
    <path fill="var(--ink)" d="M730.4 18.2c1.2.1 2.3.2 3.4.6 1.2.2 2.3.5 3.3 1s2 1.2 3 2c1.5 1.3 2.5 2.9 3 4.8.7 1.8 1 3.7.9 5.6 0 2.6-.4 4.8-1.3 6.5-.8 1.7-2 3.3-3.5 4.5-1.2 1.2-2.8 1.9-4.6 2.4l9.9 16.6h-10.2l-8.8-15.7h-7.1v15.7h-9v-44h21ZM727 38.9c1.1 0 2.2-.1 3.2-.4 1-.2 1.7-.5 2.5-1s1.4-1.2 1.8-2c.5-.7.7-1.8.7-3 .1-1.3-.1-2.4-.6-3.2-.3-.8-.9-1.5-1.6-1.9-.8-.6-1.6-.9-2.6-1-1-.1-2-.3-3.3-.3h-8.7v12.8h8.6Z" />
    <path fill="var(--ink)" d="M762.6 18.2v46.7c0 4.9-1 8.6-3.2 11-2.1 2.3-5.7 3.5-10.7 3.5h-5v-8.2h3.2c2.5 0 4.2-.7 4.9-1.9.8-1.3 1.3-3 1.3-5.4V18.2h9.5Z" />
    <path fill="var(--ink)" d="m664.1 18.2 13.2 20.7 13.2-20.7h9.6v44h-9V31.8l-11.9 19h-4l-12-19v30.4h-8.8v-44h9.7Z" />
    <path fill="var(--center)" d="M543.3 40.5c3.1-5.4 7-10.2 11.3-14.5 4.3 4.2 8.1 9 11.2 14.4-3.1 5.4-6.9 10.3-11.3 14.5-4.3-4.2-8.1-9-11.2-14.4Z" />
    <path fill="var(--alt-accent)" d="M600.3 7.5a65.76 65.76 0 0 1 0 65.9 65.2 65.2 0 0 1-42-15.2c4.5-4.4 8.6-9.7 11.8-15.3l1.5-2.5-1.5-2.5c-3.2-5.6-7.3-10.8-11.7-15.2a65.13 65.13 0 0 1 41.9-15.2Z" />
    <path fill="var(--accent)" d="M508.8 73.4a66.06 66.06 0 0 1 0-65.8c15.6 0 30.4 5.5 42.1 15.1-4.5 4.5-8.7 9.7-11.9 15.3l-1.5 2.5L539 43c3.3 5.6 7.4 10.8 11.8 15.3a65.87 65.87 0 0 1-42 15.1Z" />
</svg>